# xmcd
#
# Track frame offsets:
#	150
#	15576
#	32676
#	49742
#	63675
#	81849
#	99919
#	116335
#	134542
#	155614
#	169353
#	184230
#	198683
#	218232
#	230205
#	242705
#	256790
#	257816
#	258593
#	259284
#	259961
#	260824
#	261589
#	262334
#	263121
#
# Disc length: 3517 seconds
#
# Revision: 1
# Processed by: cddbd v1.5.2PL0 Copyright (c) Steve Scherf et al.
# Submitted via: audiograbber 1.83.01
#
DISCID=8f0dbb19
DTITLE=Various Artist - CDX Volume 653 (September 5, 2017)
DYEAR=2017
DGENRE=Country
TTITLE0=Cole Swindell - Stay Downtown
TTITLE1=Sarah Dunn Band - A Cowboy's Face
TTITLE2=Michael Lee - Ain't That Just Like Jesus
TTITLE3=Charles Parker - Bring Back The Sun
TTITLE4=James Meadows - Carolina Moon
TTITLE5=Sabin Sharpe - Empty Bottles
TTITLE6=Don Woods Jr. - Everyday Hero
TTITLE7=Todd Allen - Grandma's Tractor
TTITLE8=Jesse Xavier - Grandpa Please Don't Die
TTITLE9=Robert Stowell - I'd Die For You
TTITLE10=Gal Friday - Scrapyard
TTITLE11=Justin Kemp Band - Still Breathin'
TTITLE12=Corey Cox - Strawberry Wine 
TTITLE13=Smith and Wesley - Superman for a Day
TTITLE14=Brad Puckett - Waitin' On Thunder
TTITLE15=Dakota Danielle - When It Rains
TTITLE16=Todd Allen - Radio Liner - My New Single
TTITLE17=Todd Allen - Radio Liner - Today's Best Country
TTITLE18=Todd Allen - Radio Liner - Kickin' Country
TTITLE19=Todd Allen - Radio Liner - Hometown Countyry
TTITLE20=Todd Allen - Radio Liner - Super Country
TTITLE21=Todd Allen - Radio Liner - Todays Hot Country
TTITLE22=Todd Allen - Radio Liner - The Best In Today's Country
TTITLE23=Todd Allen - Radio Liner - More of the Country You Love
TTITLE24=Todd Allen - Radio Liner - Howlin' Country
EXTD=
EXTT0=
EXTT1=
EXTT2=
EXTT3=
EXTT4=
EXTT5=
EXTT6=
EXTT7=
EXTT8=
EXTT9=
EXTT10=
EXTT11=
EXTT12=
EXTT13=
EXTT14=
EXTT15=
EXTT16=
EXTT17=
EXTT18=
EXTT19=
EXTT20=
EXTT21=
EXTT22=
EXTT23=
EXTT24=
PLAYORDER=
